<mxfile host="app.diagrams.net" agent="Mozilla/5.0 (Windows NT 10.0; Win64; x64) AppleWebKit/537.36 (KHTML, like Gecko) Chrome/133.0.0.0 Safari/537.36 Edg/133.0.0.0" version="26.0.15">
  <diagram name="第 1 页" id="WtR9e3HdYUOJ1lMreugZ">
    <mxGraphModel dx="1826" dy="755" grid="0" gridSize="10" guides="1" tooltips="1" connect="1" arrows="1" fold="1" page="0" pageScale="1" pageWidth="827" pageHeight="1169" math="0" shadow="0">
      <root>
        <mxCell id="0" />
        <mxCell id="1" parent="0" />
        <mxCell id="F2PklvX9BzaPfLRtc6xG-81" style="rounded=0;orthogonalLoop=1;jettySize=auto;html=1;entryX=0;entryY=0.5;entryDx=0;entryDy=0;" parent="1" source="F2PklvX9BzaPfLRtc6xG-1" target="F2PklvX9BzaPfLRtc6xG-2" edge="1">
          <mxGeometry relative="1" as="geometry" />
        </mxCell>
        <mxCell id="F2PklvX9BzaPfLRtc6xG-82" style="rounded=0;orthogonalLoop=1;jettySize=auto;html=1;entryX=0;entryY=0.5;entryDx=0;entryDy=0;" parent="1" source="F2PklvX9BzaPfLRtc6xG-1" target="F2PklvX9BzaPfLRtc6xG-3" edge="1">
          <mxGeometry relative="1" as="geometry" />
        </mxCell>
        <mxCell id="F2PklvX9BzaPfLRtc6xG-83" style="rounded=0;orthogonalLoop=1;jettySize=auto;html=1;" parent="1" source="F2PklvX9BzaPfLRtc6xG-1" target="F2PklvX9BzaPfLRtc6xG-6" edge="1">
          <mxGeometry relative="1" as="geometry" />
        </mxCell>
        <mxCell id="M0qSmVQjPo-8_12m-MSE-19" style="rounded=0;orthogonalLoop=1;jettySize=auto;html=1;entryX=0;entryY=0.5;entryDx=0;entryDy=0;" edge="1" parent="1" source="F2PklvX9BzaPfLRtc6xG-1" target="M0qSmVQjPo-8_12m-MSE-11">
          <mxGeometry relative="1" as="geometry" />
        </mxCell>
        <mxCell id="F2PklvX9BzaPfLRtc6xG-1" value="员工" style="shape=umlActor;verticalLabelPosition=bottom;verticalAlign=top;html=1;outlineConnect=0;" parent="1" vertex="1">
          <mxGeometry x="-226" y="264" width="30" height="60" as="geometry" />
        </mxCell>
        <mxCell id="M0qSmVQjPo-8_12m-MSE-28" style="rounded=0;orthogonalLoop=1;jettySize=auto;html=1;entryX=0;entryY=0.5;entryDx=0;entryDy=0;dashed=1;endArrow=open;endFill=0;" edge="1" parent="1" source="F2PklvX9BzaPfLRtc6xG-2" target="F2PklvX9BzaPfLRtc6xG-49">
          <mxGeometry relative="1" as="geometry" />
        </mxCell>
        <mxCell id="F2PklvX9BzaPfLRtc6xG-2" value="物品管理" style="ellipse;whiteSpace=wrap;html=1;" parent="1" vertex="1">
          <mxGeometry x="-18" y="98" width="95" height="56" as="geometry" />
        </mxCell>
        <mxCell id="F2PklvX9BzaPfLRtc6xG-78" style="rounded=0;orthogonalLoop=1;jettySize=auto;html=1;entryX=0;entryY=0.5;entryDx=0;entryDy=0;dashed=1;endArrow=open;endFill=0;" parent="1" source="F2PklvX9BzaPfLRtc6xG-3" target="F2PklvX9BzaPfLRtc6xG-49" edge="1">
          <mxGeometry relative="1" as="geometry" />
        </mxCell>
        <mxCell id="F2PklvX9BzaPfLRtc6xG-3" value="供应商信息" style="ellipse;whiteSpace=wrap;html=1;" parent="1" vertex="1">
          <mxGeometry x="-11" y="233" width="94" height="52" as="geometry" />
        </mxCell>
        <mxCell id="M0qSmVQjPo-8_12m-MSE-26" style="rounded=0;orthogonalLoop=1;jettySize=auto;html=1;entryX=0;entryY=0.5;entryDx=0;entryDy=0;dashed=1;endArrow=open;endFill=0;" edge="1" parent="1" source="F2PklvX9BzaPfLRtc6xG-6" target="F2PklvX9BzaPfLRtc6xG-49">
          <mxGeometry relative="1" as="geometry" />
        </mxCell>
        <mxCell id="F2PklvX9BzaPfLRtc6xG-6" value="物品种类信息" style="ellipse;whiteSpace=wrap;html=1;" parent="1" vertex="1">
          <mxGeometry x="-5" y="373" width="82" height="47" as="geometry" />
        </mxCell>
        <mxCell id="F2PklvX9BzaPfLRtc6xG-19" style="rounded=0;orthogonalLoop=1;jettySize=auto;html=1;entryX=1;entryY=0.5;entryDx=0;entryDy=0;dashed=1;strokeColor=default;endArrow=open;endFill=0;" parent="1" source="F2PklvX9BzaPfLRtc6xG-8" target="F2PklvX9BzaPfLRtc6xG-6" edge="1">
          <mxGeometry relative="1" as="geometry" />
        </mxCell>
        <mxCell id="F2PklvX9BzaPfLRtc6xG-25" style="rounded=0;orthogonalLoop=1;jettySize=auto;html=1;entryX=1;entryY=0.5;entryDx=0;entryDy=0;dashed=1;endArrow=open;endFill=0;" parent="1" source="F2PklvX9BzaPfLRtc6xG-8" target="F2PklvX9BzaPfLRtc6xG-2" edge="1">
          <mxGeometry relative="1" as="geometry" />
        </mxCell>
        <mxCell id="F2PklvX9BzaPfLRtc6xG-52" style="rounded=0;orthogonalLoop=1;jettySize=auto;html=1;entryX=0;entryY=0.5;entryDx=0;entryDy=0;dashed=1;endArrow=open;endFill=0;exitX=1;exitY=0.5;exitDx=0;exitDy=0;" parent="1" source="F2PklvX9BzaPfLRtc6xG-8" target="F2PklvX9BzaPfLRtc6xG-49" edge="1">
          <mxGeometry relative="1" as="geometry" />
        </mxCell>
        <mxCell id="F2PklvX9BzaPfLRtc6xG-8" value="物品出库" style="ellipse;whiteSpace=wrap;html=1;" parent="1" vertex="1">
          <mxGeometry x="272" y="89" width="76" height="46" as="geometry" />
        </mxCell>
        <mxCell id="F2PklvX9BzaPfLRtc6xG-50" style="rounded=0;orthogonalLoop=1;jettySize=auto;html=1;entryX=0;entryY=0.5;entryDx=0;entryDy=0;dashed=1;endArrow=open;endFill=0;" parent="1" source="F2PklvX9BzaPfLRtc6xG-9" target="F2PklvX9BzaPfLRtc6xG-49" edge="1">
          <mxGeometry relative="1" as="geometry" />
        </mxCell>
        <mxCell id="F2PklvX9BzaPfLRtc6xG-9" value="物品入库" style="ellipse;whiteSpace=wrap;html=1;" parent="1" vertex="1">
          <mxGeometry x="259" y="10" width="107" height="51" as="geometry" />
        </mxCell>
        <mxCell id="F2PklvX9BzaPfLRtc6xG-27" style="rounded=0;orthogonalLoop=1;jettySize=auto;html=1;entryX=1;entryY=0.5;entryDx=0;entryDy=0;dashed=1;endArrow=open;endFill=0;" parent="1" source="F2PklvX9BzaPfLRtc6xG-11" target="F2PklvX9BzaPfLRtc6xG-3" edge="1">
          <mxGeometry relative="1" as="geometry" />
        </mxCell>
        <mxCell id="F2PklvX9BzaPfLRtc6xG-31" style="rounded=0;orthogonalLoop=1;jettySize=auto;html=1;entryX=1;entryY=0.5;entryDx=0;entryDy=0;dashed=1;endArrow=open;endFill=0;" parent="1" source="F2PklvX9BzaPfLRtc6xG-11" target="F2PklvX9BzaPfLRtc6xG-3" edge="1">
          <mxGeometry relative="1" as="geometry" />
        </mxCell>
        <mxCell id="F2PklvX9BzaPfLRtc6xG-56" style="rounded=0;orthogonalLoop=1;jettySize=auto;html=1;entryX=0;entryY=0.5;entryDx=0;entryDy=0;dashed=1;endArrow=open;endFill=0;" parent="1" source="F2PklvX9BzaPfLRtc6xG-11" target="F2PklvX9BzaPfLRtc6xG-49" edge="1">
          <mxGeometry relative="1" as="geometry" />
        </mxCell>
        <mxCell id="M0qSmVQjPo-8_12m-MSE-2" style="rounded=0;orthogonalLoop=1;jettySize=auto;html=1;dashed=1;endArrow=open;endFill=0;" edge="1" parent="1" source="F2PklvX9BzaPfLRtc6xG-11" target="F2PklvX9BzaPfLRtc6xG-2">
          <mxGeometry relative="1" as="geometry" />
        </mxCell>
        <mxCell id="F2PklvX9BzaPfLRtc6xG-11" value="供应商信息查看" style="ellipse;whiteSpace=wrap;html=1;" parent="1" vertex="1">
          <mxGeometry x="268.5" y="199" width="76" height="46" as="geometry" />
        </mxCell>
        <mxCell id="F2PklvX9BzaPfLRtc6xG-58" style="rounded=0;orthogonalLoop=1;jettySize=auto;html=1;entryX=0;entryY=0.5;entryDx=0;entryDy=0;dashed=1;endArrow=open;endFill=0;" parent="1" source="F2PklvX9BzaPfLRtc6xG-12" target="F2PklvX9BzaPfLRtc6xG-49" edge="1">
          <mxGeometry relative="1" as="geometry" />
        </mxCell>
        <mxCell id="M0qSmVQjPo-8_12m-MSE-4" style="rounded=0;orthogonalLoop=1;jettySize=auto;html=1;entryX=1;entryY=0.5;entryDx=0;entryDy=0;endArrow=open;endFill=0;dashed=1;" edge="1" parent="1" source="F2PklvX9BzaPfLRtc6xG-12" target="F2PklvX9BzaPfLRtc6xG-2">
          <mxGeometry relative="1" as="geometry" />
        </mxCell>
        <mxCell id="M0qSmVQjPo-8_12m-MSE-6" style="rounded=0;orthogonalLoop=1;jettySize=auto;html=1;entryX=1;entryY=0.5;entryDx=0;entryDy=0;dashed=1;endArrow=open;endFill=0;" edge="1" parent="1" source="F2PklvX9BzaPfLRtc6xG-12" target="F2PklvX9BzaPfLRtc6xG-6">
          <mxGeometry relative="1" as="geometry" />
        </mxCell>
        <mxCell id="F2PklvX9BzaPfLRtc6xG-12" value="种类信息查看" style="ellipse;whiteSpace=wrap;html=1;" parent="1" vertex="1">
          <mxGeometry x="268.5" y="278" width="76" height="46" as="geometry" />
        </mxCell>
        <mxCell id="F2PklvX9BzaPfLRtc6xG-21" style="rounded=0;orthogonalLoop=1;jettySize=auto;html=1;entryX=0.947;entryY=0.393;entryDx=0;entryDy=0;entryPerimeter=0;dashed=1;endArrow=open;endFill=0;" parent="1" source="F2PklvX9BzaPfLRtc6xG-9" target="F2PklvX9BzaPfLRtc6xG-2" edge="1">
          <mxGeometry relative="1" as="geometry" />
        </mxCell>
        <mxCell id="F2PklvX9BzaPfLRtc6xG-23" value="&amp;lt;&amp;lt;extend&amp;gt;&amp;gt;" style="text;html=1;align=center;verticalAlign=middle;resizable=0;points=[];autosize=1;strokeColor=none;fillColor=none;" parent="1" vertex="1">
          <mxGeometry x="153" y="46" width="82" height="26" as="geometry" />
        </mxCell>
        <mxCell id="F2PklvX9BzaPfLRtc6xG-26" value="&amp;lt;&amp;lt;extend&amp;gt;&amp;gt;" style="text;html=1;align=center;verticalAlign=middle;resizable=0;points=[];autosize=1;strokeColor=none;fillColor=none;" parent="1" vertex="1">
          <mxGeometry x="173" y="92" width="82" height="26" as="geometry" />
        </mxCell>
        <mxCell id="F2PklvX9BzaPfLRtc6xG-30" value="&amp;lt;&amp;lt;extend&amp;gt;&amp;gt;" style="text;html=1;align=center;verticalAlign=middle;resizable=0;points=[];autosize=1;strokeColor=none;fillColor=none;" parent="1" vertex="1">
          <mxGeometry x="64" y="311" width="82" height="26" as="geometry" />
        </mxCell>
        <mxCell id="F2PklvX9BzaPfLRtc6xG-49" value="登录" style="ellipse;whiteSpace=wrap;html=1;" parent="1" vertex="1">
          <mxGeometry x="747" y="231" width="95" height="56" as="geometry" />
        </mxCell>
        <mxCell id="F2PklvX9BzaPfLRtc6xG-51" value="&amp;lt;&amp;lt;include&amp;gt;&amp;gt;" style="text;html=1;align=center;verticalAlign=middle;resizable=0;points=[];autosize=1;strokeColor=none;fillColor=none;" parent="1" vertex="1">
          <mxGeometry x="418" y="238" width="84" height="26" as="geometry" />
        </mxCell>
        <mxCell id="F2PklvX9BzaPfLRtc6xG-55" value="&amp;lt;&amp;lt;include&amp;gt;&amp;gt;" style="text;html=1;align=center;verticalAlign=middle;resizable=0;points=[];autosize=1;strokeColor=none;fillColor=none;" parent="1" vertex="1">
          <mxGeometry x="497" y="298" width="84" height="26" as="geometry" />
        </mxCell>
        <mxCell id="F2PklvX9BzaPfLRtc6xG-57" value="&amp;lt;&amp;lt;include&amp;gt;&amp;gt;" style="text;html=1;align=center;verticalAlign=middle;resizable=0;points=[];autosize=1;strokeColor=none;fillColor=none;" parent="1" vertex="1">
          <mxGeometry x="383" y="285" width="84" height="26" as="geometry" />
        </mxCell>
        <mxCell id="F2PklvX9BzaPfLRtc6xG-59" value="&amp;lt;&amp;lt;include&amp;gt;&amp;gt;" style="text;html=1;align=center;verticalAlign=middle;resizable=0;points=[];autosize=1;strokeColor=none;fillColor=none;" parent="1" vertex="1">
          <mxGeometry x="549" y="133" width="84" height="26" as="geometry" />
        </mxCell>
        <mxCell id="F2PklvX9BzaPfLRtc6xG-61" value="&amp;lt;&amp;lt;include&amp;gt;&amp;gt;" style="text;html=1;align=center;verticalAlign=middle;resizable=0;points=[];autosize=1;strokeColor=none;fillColor=none;" parent="1" vertex="1">
          <mxGeometry x="404" y="109" width="84" height="26" as="geometry" />
        </mxCell>
        <mxCell id="M0qSmVQjPo-8_12m-MSE-1" style="edgeStyle=orthogonalEdgeStyle;rounded=0;orthogonalLoop=1;jettySize=auto;html=1;exitX=0.5;exitY=1;exitDx=0;exitDy=0;" edge="1" parent="1" source="F2PklvX9BzaPfLRtc6xG-9" target="F2PklvX9BzaPfLRtc6xG-9">
          <mxGeometry relative="1" as="geometry" />
        </mxCell>
        <mxCell id="M0qSmVQjPo-8_12m-MSE-3" value="&amp;lt;&amp;lt;extend&amp;gt;&amp;gt;" style="text;html=1;align=center;verticalAlign=middle;resizable=0;points=[];autosize=1;strokeColor=none;fillColor=none;" vertex="1" parent="1">
          <mxGeometry x="153" y="133" width="82" height="26" as="geometry" />
        </mxCell>
        <mxCell id="M0qSmVQjPo-8_12m-MSE-5" value="&amp;lt;&amp;lt;extend&amp;gt;&amp;gt;" style="text;html=1;align=center;verticalAlign=middle;resizable=0;points=[];autosize=1;strokeColor=none;fillColor=none;" vertex="1" parent="1">
          <mxGeometry x="100" y="156" width="82" height="26" as="geometry" />
        </mxCell>
        <mxCell id="M0qSmVQjPo-8_12m-MSE-7" value="&amp;lt;&amp;lt;extend&amp;gt;&amp;gt;" style="text;html=1;align=center;verticalAlign=middle;resizable=0;points=[];autosize=1;strokeColor=none;fillColor=none;" vertex="1" parent="1">
          <mxGeometry x="136" y="357" width="82" height="26" as="geometry" />
        </mxCell>
        <mxCell id="M0qSmVQjPo-8_12m-MSE-8" value="&amp;lt;&amp;lt;extend&amp;gt;&amp;gt;" style="text;html=1;align=center;verticalAlign=middle;resizable=0;points=[];autosize=1;strokeColor=none;fillColor=none;" vertex="1" parent="1">
          <mxGeometry x="81" y="209" width="82" height="26" as="geometry" />
        </mxCell>
        <mxCell id="M0qSmVQjPo-8_12m-MSE-14" style="rounded=0;orthogonalLoop=1;jettySize=auto;html=1;entryX=0;entryY=0.5;entryDx=0;entryDy=0;dashed=1;endArrow=open;endFill=0;" edge="1" parent="1" source="M0qSmVQjPo-8_12m-MSE-11" target="M0qSmVQjPo-8_12m-MSE-12">
          <mxGeometry relative="1" as="geometry" />
        </mxCell>
        <mxCell id="M0qSmVQjPo-8_12m-MSE-17" style="rounded=0;orthogonalLoop=1;jettySize=auto;html=1;entryX=0;entryY=0.5;entryDx=0;entryDy=0;dashed=1;endArrow=open;endFill=0;" edge="1" parent="1" source="M0qSmVQjPo-8_12m-MSE-11" target="M0qSmVQjPo-8_12m-MSE-13">
          <mxGeometry relative="1" as="geometry" />
        </mxCell>
        <mxCell id="M0qSmVQjPo-8_12m-MSE-24" style="rounded=0;orthogonalLoop=1;jettySize=auto;html=1;entryX=0;entryY=0.5;entryDx=0;entryDy=0;dashed=1;" edge="1" parent="1" source="M0qSmVQjPo-8_12m-MSE-11" target="F2PklvX9BzaPfLRtc6xG-49">
          <mxGeometry relative="1" as="geometry" />
        </mxCell>
        <mxCell id="M0qSmVQjPo-8_12m-MSE-11" value="系统信息查看" style="ellipse;whiteSpace=wrap;html=1;" vertex="1" parent="1">
          <mxGeometry x="-2" y="478" width="95" height="56" as="geometry" />
        </mxCell>
        <mxCell id="M0qSmVQjPo-8_12m-MSE-20" style="rounded=0;orthogonalLoop=1;jettySize=auto;html=1;entryX=0;entryY=0.5;entryDx=0;entryDy=0;dashed=1;endArrow=open;endFill=0;" edge="1" parent="1" source="M0qSmVQjPo-8_12m-MSE-12" target="F2PklvX9BzaPfLRtc6xG-49">
          <mxGeometry relative="1" as="geometry" />
        </mxCell>
        <mxCell id="M0qSmVQjPo-8_12m-MSE-12" value="操作日志" style="ellipse;whiteSpace=wrap;html=1;" vertex="1" parent="1">
          <mxGeometry x="249.5" y="364" width="95" height="56" as="geometry" />
        </mxCell>
        <mxCell id="M0qSmVQjPo-8_12m-MSE-22" style="rounded=0;orthogonalLoop=1;jettySize=auto;html=1;entryX=0;entryY=0.5;entryDx=0;entryDy=0;dashed=1;endArrow=open;endFill=0;" edge="1" parent="1" source="M0qSmVQjPo-8_12m-MSE-13" target="F2PklvX9BzaPfLRtc6xG-49">
          <mxGeometry relative="1" as="geometry" />
        </mxCell>
        <mxCell id="M0qSmVQjPo-8_12m-MSE-13" value="个人数据" style="ellipse;whiteSpace=wrap;html=1;" vertex="1" parent="1">
          <mxGeometry x="246" y="447" width="95" height="56" as="geometry" />
        </mxCell>
        <mxCell id="M0qSmVQjPo-8_12m-MSE-15" value="&amp;lt;&amp;lt;extend&amp;gt;&amp;gt;" style="text;html=1;align=center;verticalAlign=middle;resizable=0;points=[];autosize=1;strokeColor=none;fillColor=none;" vertex="1" parent="1">
          <mxGeometry x="122" y="456" width="82" height="26" as="geometry" />
        </mxCell>
        <mxCell id="M0qSmVQjPo-8_12m-MSE-18" value="&amp;lt;&amp;lt;extend&amp;gt;&amp;gt;" style="text;html=1;align=center;verticalAlign=middle;resizable=0;points=[];autosize=1;strokeColor=none;fillColor=none;" vertex="1" parent="1">
          <mxGeometry x="125" y="496" width="82" height="26" as="geometry" />
        </mxCell>
        <mxCell id="M0qSmVQjPo-8_12m-MSE-21" value="&amp;lt;&amp;lt;include&amp;gt;&amp;gt;" style="text;html=1;align=center;verticalAlign=middle;resizable=0;points=[];autosize=1;strokeColor=none;fillColor=none;" vertex="1" parent="1">
          <mxGeometry x="484" y="347" width="84" height="26" as="geometry" />
        </mxCell>
        <mxCell id="M0qSmVQjPo-8_12m-MSE-23" value="&amp;lt;&amp;lt;include&amp;gt;&amp;gt;" style="text;html=1;align=center;verticalAlign=middle;resizable=0;points=[];autosize=1;strokeColor=none;fillColor=none;" vertex="1" parent="1">
          <mxGeometry x="443" y="406" width="84" height="26" as="geometry" />
        </mxCell>
        <mxCell id="M0qSmVQjPo-8_12m-MSE-25" value="&amp;lt;&amp;lt;include&amp;gt;&amp;gt;" style="text;html=1;align=center;verticalAlign=middle;resizable=0;points=[];autosize=1;strokeColor=none;fillColor=none;" vertex="1" parent="1">
          <mxGeometry x="77" y="430" width="84" height="26" as="geometry" />
        </mxCell>
        <mxCell id="M0qSmVQjPo-8_12m-MSE-29" value="&amp;lt;&amp;lt;include&amp;gt;&amp;gt;" style="text;html=1;align=center;verticalAlign=middle;resizable=0;points=[];autosize=1;strokeColor=none;fillColor=none;" vertex="1" parent="1">
          <mxGeometry x="371" y="166" width="84" height="26" as="geometry" />
        </mxCell>
      </root>
    </mxGraphModel>
  </diagram>
</mxfile>
